HIERARCHY
ROOT hip
{
  OFFSET 1.09931 80.1916 255.893
  CHANNELS 6 Xposition Yposition Zposition Zrotation Xrotation Yrotation
  JOINT abdomen
  {
    OFFSET 0 20.6881 -0.73152
    CHANNELS 3 Zrotation Xrotation Yrotation
    JOINT chest
    {
      OFFSET 0 11.7043 -0.48768
      CHANNELS 3 Zrotation Xrotation Yrotation
      JOINT neck
      {
        OFFSET 0 22.1894 -2.19456
        CHANNELS 3 Zrotation Xrotation Yrotation
        JOINT head
        {
          OFFSET -0.24384 7.07133 1.2192
          CHANNELS 3 Zrotation Xrotation Yrotation
          JOINT leftEye
          {
            OFFSET 4.14528 8.04674 8.04672
            CHANNELS 3 Zrotation Xrotation Yrotation
            End Site
            {
              OFFSET 1 0 0
            }
          }
          JOINT rightEye
          {
            OFFSET -3.6576 8.04674 8.04672
            CHANNELS 3 Zrotation Xrotation Yrotation
            End Site
            {
              OFFSET 1 0 0
            }
          }
        }
      }
      JOINT rCollar
      {
        OFFSET -2.68224 19.2634 -4.8768
        CHANNELS 3 Zrotation Xrotation Yrotation
        JOINT rShldr
        {
          OFFSET -8.77824 -1.95073 1.46304
          CHANNELS 3 Zrotation Xrotation Yrotation
          JOINT rForeArm
          {
            OFFSET -28.1742 -1.7115 0.48768
            CHANNELS 3 Zrotation Xrotation Yrotation
            JOINT rHand
            {
              OFFSET -22.5879 0.773209 7.07136
              CHANNELS 3 Zrotation Xrotation Yrotation
              JOINT rThumb1
              {
                OFFSET -1.2192 -0.487915 3.41376
                CHANNELS 3 Zrotation Xrotation Yrotation
                JOINT rThumb2
                {
                  OFFSET -3.37035 -0.52449 3.41376
                  CHANNELS 3 Zrotation Xrotation Yrotation
                  End Site
                  {
                    OFFSET -1.78271 -1.18214 1.43049
                  }
                }
              }
              JOINT rIndex1
              {
                OFFSET -7.75947 0.938293 5.60832
                CHANNELS 3 Zrotation Xrotation Yrotation
                JOINT rIndex2
                {
                  OFFSET -2.54057 -0.884171 1.56538
                  CHANNELS 3 Zrotation Xrotation Yrotation
                  End Site
                  {
                    OFFSET -1.62519 -0.234802 1.16502
                  }
                }
              }
              JOINT rMid1
              {
                OFFSET -8.24714 1.18213 3.41376
                CHANNELS 3 Zrotation Xrotation Yrotation
                JOINT rMid2
                {
                  OFFSET -3.10165 -0.590103 1.0647
                  CHANNELS 3 Zrotation Xrotation Yrotation
                  End Site
                  {
                    OFFSET -2.48547 -0.328903 0.83742
                  }
                }
              }
              JOINT rRing1
              {
                OFFSET -8.82822 0.546677 1.51678
                CHANNELS 3 Zrotation Xrotation Yrotation
                JOINT rRing2
                {
                  OFFSET -2.60934 -0.819778 -0.0198488
                  CHANNELS 3 Zrotation Xrotation Yrotation
                  End Site
                  {
                    OFFSET -2.33842 -0.294052 0.168128
                  }
                }
              }
              JOINT rPinky1
              {
                OFFSET -8.27202 -0.0477905 -0.4584
                CHANNELS 3 Zrotation Xrotation Yrotation
                JOINT rPinky2
                {
                  OFFSET -1.82734 -0.647385 -0.700984
                  CHANNELS 3 Zrotation Xrotation Yrotation
                  End Site
                  {
                    OFFSET -1.69225 -0.51767 -0.607171
                  }
                }
              }
            }
          }
        }
      }
      JOINT lCollar
      {
        OFFSET 2.68224 19.2634 -4.8768
        CHANNELS 3 Zrotation Xrotation Yrotation
        JOINT lShldr
        {
          OFFSET 8.77824 -1.95073 1.46304
          CHANNELS 3 Zrotation Xrotation Yrotation
          JOINT lForeArm
          {
            OFFSET 28.1742 -1.7115 0.48768
            CHANNELS 3 Zrotation Xrotation Yrotation
            JOINT lHand
            {
              OFFSET 22.5879 0.773209 7.07136
              CHANNELS 3 Zrotation Xrotation Yrotation
              JOINT lThumb1
              {
                OFFSET 1.2192 -0.487915 3.41376
                CHANNELS 3 Zrotation Xrotation Yrotation
                JOINT lThumb2
                {
                  OFFSET 3.37035 -0.52449 3.41376
                  CHANNELS 3 Zrotation Xrotation Yrotation
                  End Site
                  {
                    OFFSET 1.78271 -1.18214 1.43049
                  }
                }
              }
              JOINT lIndex1
              {
                OFFSET 7.75947 0.938293 5.60832
                CHANNELS 3 Zrotation Xrotation Yrotation
                JOINT lIndex2
                {
                  OFFSET 2.54057 -0.884171 1.56538
                  CHANNELS 3 Zrotation Xrotation Yrotation
                  End Site
                  {
                    OFFSET 1.62519 -0.234802 1.16502
                  }
                }
              }
              JOINT lMid1
              {
                OFFSET 8.24714 1.18213 3.41376
                CHANNELS 3 Zrotation Xrotation Yrotation
                JOINT lMid2
                {
                  OFFSET 3.10165 -0.590103 1.0647
                  CHANNELS 3 Zrotation Xrotation Yrotation
                  End Site
                  {
                    OFFSET 2.48547 -0.328903 0.83742
                  }
                }
              }
              JOINT lRing1
              {
                OFFSET 8.82822 0.546677 1.51678
                CHANNELS 3 Zrotation Xrotation Yrotation
                JOINT lRing2
                {
                  OFFSET 2.60934 -0.819778 -0.0198488
                  CHANNELS 3 Zrotation Xrotation Yrotation
                  End Site
                  {
                    OFFSET 2.33842 -0.294052 0.168128
                  }
                }
              }
              JOINT lPinky1
              {
                OFFSET 8.27202 -0.0477905 -0.4584
                CHANNELS 3 Zrotation Xrotation Yrotation
                JOINT lPinky2
                {
                  OFFSET 1.82734 -0.647385 -0.700984
                  CHANNELS 3 Zrotation Xrotation Yrotation
                  End Site
                  {
                    OFFSET 1.69225 -0.51767 -0.607171
                  }
                }
              }
            }
          }
        }
      }
    }
  }
  JOINT rButtock
  {
    OFFSET -8.77824 4.35084 1.2192
    CHANNELS 3 Zrotation Xrotation Yrotation
    JOINT rThigh
    {
      OFFSET 0 -1.70687 -2.19456
      CHANNELS 3 Zrotation Xrotation Yrotation
      JOINT rShin
      {
        OFFSET 0 -36.8199 0.73152
        CHANNELS 3 Zrotation Xrotation Yrotation
        JOINT rFoot
        {
          OFFSET 0.73152 -45.1104 -5.12064
          CHANNELS 3 Zrotation Xrotation Yrotation
          End Site
          {
            OFFSET -1.1221 -3.69964 12.103
          }
        }
      }
    }
  }
  JOINT lButtock
  {
    OFFSET 8.77824 4.35084 1.2192
    CHANNELS 3 Zrotation Xrotation Yrotation
    JOINT lThigh
    {
      OFFSET 0 -1.70687 -2.19456
      CHANNELS 3 Zrotation Xrotation Yrotation
      JOINT lShin
      {
        OFFSET 0 -36.8199 0.73152
        CHANNELS 3 Zrotation Xrotation Yrotation
        JOINT lFoot
        {
          OFFSET -0.73152 -45.1104 -5.12064
          CHANNELS 3 Zrotation Xrotation Yrotation
          End Site
          {
            OFFSET 1.1221 -3.69964 12.103
          }
        }
      }
    }
  }
}
MOTION
Frames:	4
Frame Time:	0.00833333
1.83701 81.1704 -1.07631 4.21481 17.7819 0.00905452 -7.2301 -19.7548 -3.83653 1.23512 2.13722 -0.747834 -0.519149 9.17427 -0.677669 6.18585 -18.0191 -0.299563 -0 0 0 -0 0 0 -2.89758e-016 3.13654e-013 5.06404e-014 71.2845 -37.4203 -22.9873 -4.94224 -1.5928 8.60278 -3.93668 47.7099 8.88816 2.26582e-009 8.22321e-010 -2.59033e-009 3.80609e-009 1.35054e-009 -4.54337e-009 2.26582e-009 8.22324e-010 -2.59034e-009 7.73091 5.47488 0.417314 2.26582e-009 8.22323e-010 -2.59033e-009 2.90554 0.965183 0.102902 2.26583e-009 8.22323e-010 -2.59033e-009 10.2786 0.731801 0.0259123 2.26582e-009 8.22322e-010 -2.59033e-009 2.22167 -0.733487 -0.20892 -2.07212e-016 3.13652e-013 5.02925e-014 -73.0368 18.3678 -10.5046 12.2988 -5.66032 -22.1897 0.0616122 7.06501 -0.998036 -1.35349e-009 1.69725e-009 2.68682e-009 -2.32328e-009 2.96303e-009 4.65345e-009 -1.35349e-009 1.69725e-009 2.68684e-009 -7.73091 5.47488 -0.417314 -1.35349e-009 1.69725e-009 2.68683e-009 -2.90554 0.965183 -0.102902 -1.3535e-009 1.69725e-009 2.68682e-009 -10.2786 0.731801 -0.0259123 -1.35349e-009 1.69725e-009 2.68682e-009 -2.22167 -0.733487 0.20892 -2.03217e-016 0 -3.88251e-019 -9.76029 -54.3298 -12.559 -0.834814 55.9237 1.3142 -1.53431 -7.32559 -4.23075 2.03217e-016 0 3.88251e-019 -4.07259 -28.6995 5.35497 0.191945 36.0599 -0.804331 -3.16071 -21.5493 -8.57677 
1.77371 81.1639 0.0796216 4.00529 17.8246 0.486768 -7.02441 -19.6509 -4.12304 1.29518 2.10957 -0.832423 -0.539902 9.24133 -0.690614 6.10371 -18.3146 -0.320853 -0 0 0 -0 0 0 1.96525e-015 2.30921e-013 6.02372e-014 67.0782 -43.1381 -27.0482 -4.74732 -1.50725 8.26534 -5.68574 53.6512 11.0632 1.99622e-009 6.09033e-010 -1.87577e-009 3.36303e-009 1.00706e-009 -3.30288e-009 1.99622e-009 6.09036e-010 -1.87578e-009 7.73091 5.47488 0.417314 1.99622e-009 6.09034e-010 -1.87577e-009 2.90554 0.965183 0.102902 1.99623e-009 6.09035e-010 -1.87578e-009 10.2786 0.731801 0.0259123 1.99622e-009 6.09033e-010 -1.87577e-009 2.22167 -0.733487 -0.20892 2.04087e-015 2.30919e-013 5.99146e-014 -71.6875 19.9062 -12.2138 12.8449 -6.0585 -23.2576 0.0370411 5.39821 -0.761374 -1.14205e-009 1.28205e-009 2.1438e-009 -1.96219e-009 2.23972e-009 3.71238e-009 -1.14205e-009 1.28206e-009 2.14381e-009 -7.73091 5.47488 -0.417314 -1.14205e-009 1.28206e-009 2.14381e-009 -2.90554 0.965183 -0.102902 -1.14206e-009 1.28206e-009 2.1438e-009 -10.2786 0.731801 -0.0259123 -1.14205e-009 1.28206e-009 2.14379e-009 -2.22167 -0.733487 0.20892 -2.03217e-016 0 -3.88251e-019 -9.6344 -54.5628 -12.544 -0.702369 52.9567 1.17573 -1.70999 -7.57435 -4.93279 2.03217e-016 0 3.88251e-019 -3.69199 -27.3904 5.8938 0.176994 35.1578 -0.80169 -3.66408 -21.6692 -9.66802 
1.749 81.2125 1.30871 3.83571 17.8397 0.967467 -6.84281 -19.5162 -4.40723 1.3157 2.06426 -0.915963 -0.527228 9.35439 -0.694929 5.99102 -18.7042 -0.329329 -0 0 0 -0 0 0 6.30759e-015 1.1326e-013 7.57929e-014 62.4408 -47.8282 -31.6558 -4.73223 -1.50186 8.23792 -7.55499 58.5726 13.3253 1.37566e-009 3.6773e-010 -9.61583e-010 2.33186e-009 6.3528e-010 -1.7071e-009 1.37566e-009 3.67732e-010 -9.6159e-010 7.73091 5.47488 0.417314 1.37566e-009 3.67731e-010 -9.61581e-010 2.90554 0.965183 0.102902 1.37567e-009 3.67731e-010 -9.61585e-010 10.2786 0.731801 0.0259123 1.37566e-009 3.67729e-010 -9.61573e-010 2.22167 -0.733487 -0.20892 6.34672e-015 1.13259e-013 7.55289e-014 -70.2243 21.3014 -13.9176 13.3801 -6.46333 -24.3187 0.0186508 3.80204 -0.535388 -9.11828e-010 4.98102e-010 1.34628e-009 -1.56896e-009 8.76977e-010 2.3316e-009 -9.11835e-010 4.98098e-010 1.34629e-009 -7.73091 5.47488 -0.417314 -9.11829e-010 4.981e-010 1.34629e-009 -2.90554 0.965183 -0.102902 -9.11837e-010 4.981e-010 1.34628e-009 -10.2786 0.731801 -0.0259123 -9.11825e-010 4.98103e-010 1.34628e-009 -2.22167 -0.733487 0.20892 -2.03217e-016 0 -3.88251e-019 -9.6003 -54.6449 -12.5033 -0.587755 49.8026 1.04934 -1.85621 -7.75509 -5.55678 2.03217e-016 0 3.88251e-019 -3.39124 -25.9772 6.3602 0.162282 34.1164 -0.790162 -4.179 -21.697 -10.7973 
1.78974 81.3713 2.58664 3.6994 17.8328 1.44706 -6.69275 -19.3542 -4.69102 1.32291 2.01756 -0.999218 -0.491073 9.46456 -0.69958 5.85275 -19.1096 -0.345075 -0 0 0 -0 0 0 1.18761e-014 9.55606e-015 9.44515e-014 57.4698 -51.48 -36.6484 -4.80101 -1.53336 8.35524 -9.54827 62.5275 15.6582 7.29043e-010 1.83067e-010 -1.22613e-010 1.25503e-009 3.6115e-010 -2.40745e-010 7.29045e-010 1.83068e-010 -1.22615e-010 7.73091 5.47488 0.417314 7.29043e-010 1.83067e-010 -1.22608e-010 2.90554 0.965183 0.102902 7.29049e-010 1.83067e-010 -1.22611e-010 10.2786 0.731801 0.0259123 7.29042e-010 1.83066e-010 -1.22597e-010 2.22167 -0.733487 -0.20892 1.18709e-014 9.55586e-015 9.42538e-014 -68.7041 22.5482 -15.5876 13.9139 -6.88352 -25.3862 0.00628849 2.25018 -0.316341 -6.96974e-010 -3.021e-010 5.54726e-010 -1.20168e-009 -5.13594e-010 9.614e-010 -6.96984e-010 -3.02112e-010 5.54743e-010 -7.73091 5.47488 -0.417314 -6.96975e-010 -3.02106e-010 5.54737e-010 -2.90554 0.965183 -0.102902 -6.96984e-010 -3.02107e-010 5.54728e-010 -10.2786 0.731801 -0.0259123 -6.96969e-010 -3.02104e-010 5.54728e-010 -2.22167 -0.733487 0.20892 -2.03217e-016 0 -3.88251e-019 -9.62277 -54.6155 -12.4332 -0.490225 46.5676 0.934996 -1.96823 -7.84575 -6.08621 2.03217e-016 0 3.88251e-019 -3.15003 -24.5048 6.78219 0.148183 32.998 -0.771529 -4.66816 -21.6508 -11.8857 
